<svg width="1033" height="288" viewBox="0 0 1033 288" fill="none" xmlns="http://www.w3.org/2000/svg">
<path d="M145.811 100.226C146.214 100.136 165.091 100.039 182.252 100.01L202.271 50.9882H122.434C119.961 50.85 117.485 51.2056 115.151 52.0345C112.817 52.8633 110.672 54.1487 108.84 55.8156C105.768 58.6909 103.337 62.1819 101.706 66.0602C101.706 66.0602 55.2666 189.009 35.5238 228.047C27.8385 243.246 0 286.172 0 286.172C11.5983 288.514 23.5885 288.051 34.9716 284.821C40.2676 283.412 45.3773 281.378 50.1929 278.762C55.8593 275.732 61.1444 272.038 65.9365 267.757C71.5977 262.651 76.6548 256.913 81.0086 250.655C86.312 242.977 90.8124 234.773 94.439 226.174L104.676 200.858H141.118L160.435 153.53H123.494L127.523 143.83L145.811 100.226Z" fill="#00D179"/>
<path d="M283.026 15.1883L196.914 226.16H139.058L219.79 28.3726C221.448 24.4027 224.261 21.023 227.864 18.6727C231.29 16.3879 235.318 15.1702 239.436 15.1734L283.026 15.1883Z" fill="#00D179"/>
<path d="M344.613 51.0926C355.082 50.8233 365.504 52.5974 375.294 56.3155C383.122 59.2967 389.81 64.6734 394.403 71.6787C398.897 79.1714 401.095 87.818 400.723 96.5474C400.249 108.079 397.649 119.425 393.052 130.012C390.535 136.091 388.608 140.816 387.27 144.189C385.931 147.561 384.72 150.546 383.636 153.142C382.561 155.744 381.44 158.435 380.271 161.216C379.102 163.996 377.443 167.901 375.294 172.93C371.113 182.831 366.022 192.323 360.088 201.283C355.835 207.722 350.347 213.254 343.941 217.557C337.978 221.34 331.283 223.824 324.295 224.846C315.964 226.05 307.553 226.616 299.136 226.54H272.222C264.702 226.568 257.22 225.472 250.025 223.287C243.02 221.436 236.828 217.312 232.42 211.562C228.012 205.812 225.638 198.761 225.67 191.516C225.668 180.387 228.151 169.397 232.938 159.35C234.555 155.371 236.348 150.77 238.318 145.547C240.108 141.03 242.26 135.558 244.772 129.131C247.284 122.705 250.333 115.243 253.919 106.747C260.245 90.8023 270.694 76.825 284.198 66.2466C298.113 55.8505 315.141 50.4795 332.503 51.0105L344.613 51.0926ZM336.808 109.687C337.519 108.484 337.894 107.112 337.894 105.714C337.894 104.316 337.519 102.944 336.808 101.741C336.073 100.657 335.065 99.7853 333.886 99.2143C332.708 98.6432 331.399 98.3926 330.093 98.4875C326.672 98.1863 323.251 99.0601 320.393 100.965C317.774 103.581 315.755 106.735 314.476 110.209L290.794 169.065C288.103 175.666 287.297 179.921 288.376 181.831C289.128 182.875 290.151 183.694 291.335 184.198C292.519 184.702 293.818 184.872 295.092 184.689C298.533 184.822 301.941 183.965 304.911 182.219C307.966 179.974 310.264 176.85 311.499 173.266L336.808 109.687Z" fill="#00D179"/>
<path d="M545.72 67.06C555.315 77.8392 557.691 93.2247 552.846 113.216C552.784 114.02 552.603 114.809 552.308 115.559C551.725 117.482 550.722 119.251 549.373 120.74C548.023 122.229 546.36 123.4 544.504 124.17C540.473 125.783 536.161 126.579 531.819 126.512H484.768L491.222 109.56C491.928 108.358 492.311 106.995 492.335 105.601C492.358 104.207 492.021 102.831 491.356 101.606C490.609 100.498 489.578 99.6101 488.37 99.0365C487.163 98.4629 485.823 98.2243 484.492 98.3456C481.117 98.0293 477.737 98.9058 474.941 100.823C472.401 103.483 470.431 106.634 469.151 110.082L445.476 169.027C442.785 175.638 441.977 179.899 443.051 181.809C443.802 182.854 444.825 183.673 446.009 184.178C447.193 184.683 448.492 184.855 449.766 184.674C453.173 184.823 456.548 183.961 459.466 182.197C462.459 179.901 464.705 176.77 465.92 173.199L471.576 159.641H520.821C524.169 159.438 527.499 160.255 530.372 161.984C532.61 163.551 532.834 166.331 531.043 170.326L529.962 172.93C525.783 182.853 520.693 192.368 514.755 201.35C510.505 207.798 505.017 213.337 498.609 217.646C492.646 221.435 485.952 223.923 478.963 224.951C470.632 226.154 462.221 226.721 453.803 226.645H426.643C419.166 226.678 411.728 225.579 404.58 223.384C397.955 221.454 392.054 217.597 387.628 212.304C383.052 206.349 380.505 199.084 380.361 191.576C380.356 180.434 382.839 169.432 387.628 159.373C389.245 155.393 391.038 150.787 393.007 145.554C394.798 141.032 396.952 135.561 399.469 129.139C401.986 122.717 405.035 115.243 408.617 106.717C414.791 90.7147 425.21 76.6972 438.753 66.1719C452.722 55.7781 469.79 50.4043 487.193 50.9209H499.034C520.563 50.901 536.125 56.2807 545.72 67.06Z" fill="#00D179"/>
<path d="M656.156 226.16H581.885C574.4 226.196 566.955 225.061 559.822 222.794C553.177 220.793 547.307 216.8 543.004 211.356C538.479 205.08 535.992 197.566 535.878 189.83C535.855 178.313 538.332 166.929 543.138 156.463C544.038 153.771 545.384 150.093 547.175 145.427C548.607 141.657 550.49 136.722 552.823 130.624C555.156 124.525 558.115 117.171 561.702 108.56C567.797 92.1536 578.209 77.6971 591.839 66.7166C605.681 56.0304 622.798 50.4675 640.278 50.9732H642.158C651.531 50.8091 660.792 53.03 669.071 57.4273C670.854 55.4641 673 53.8651 675.391 52.7191C678.138 51.487 681.127 50.8903 684.136 50.9732H727.196L656.156 226.16ZM600.986 166.632C598.116 173.472 597.265 177.882 598.434 179.861C599.201 180.934 600.245 181.778 601.454 182.303C602.663 182.829 603.992 183.017 605.299 182.846C607.814 182.984 610.326 182.514 612.622 181.475C614.917 180.436 616.927 178.859 618.483 176.877L635.435 135.033L644.315 111.545C645.016 110.296 645.396 108.891 645.42 107.458C645.443 106.025 645.109 104.609 644.449 103.337C643.726 102.2 642.703 101.284 641.494 100.689C640.284 100.094 638.934 99.8434 637.592 99.9648C634.203 99.6422 630.812 100.554 628.041 102.532C625.522 105.226 623.557 108.39 622.259 111.843L600.986 166.632Z" fill="#00D179"/>
<path d="M667.415 226.167H725.256L776.404 100.502C776.71 100.383 786.984 100.256 800.325 100.196C806.486 85.8517 816.088 73.2479 828.283 63.5008C835.509 57.7658 843.795 53.5113 852.667 50.9806H738.739L667.415 226.167Z" fill="#00D179"/>
<path d="M913.605 226.16H833.148C825.663 226.196 818.219 225.061 811.085 222.794C804.412 220.773 798.504 216.787 794.133 211.356C789.536 205.159 786.994 197.679 786.865 189.964C786.855 178.491 789.334 167.153 794.133 156.731C795.207 153.324 796.732 149.096 798.707 144.047C800.323 139.739 802.34 134.402 804.758 128.035C807.175 121.667 810.18 114.089 813.771 105.3C819.496 89.9003 829.556 76.4872 842.736 66.6794C856.579 55.9932 873.695 50.4302 891.176 50.9359H927.632L936.757 28.3352C938.412 24.3639 941.226 20.9837 944.831 18.6355C948.257 16.3507 952.284 15.1328 956.403 15.136H1000L913.605 226.16ZM851.981 166.64C849.111 173.479 848.26 177.889 849.429 179.869C850.196 180.941 851.239 181.785 852.448 182.311C853.657 182.836 854.986 183.024 856.293 182.853C859.694 182.999 863.064 182.154 865.994 180.421C869.029 178.088 871.282 174.887 872.455 171.244L896.406 108.351C897.108 107.102 897.488 105.697 897.511 104.265C897.534 102.832 897.201 101.416 896.541 100.144C895.817 99.0045 894.794 98.0863 893.583 97.4901C892.372 96.8938 891.02 96.6426 889.676 96.7638C886.287 96.4452 882.898 97.3562 880.125 99.3305C877.577 102.105 875.61 105.363 874.343 108.911L851.981 166.64Z" fill="#00D179"/>
<path d="M1013.86 5.652H1019.76C1021.61 5.652 1022.96 6.048 1023.83 6.84C1024.72 7.632 1025.16 8.772 1025.16 10.26C1025.16 11.604 1024.81 12.612 1024.12 13.284C1023.42 13.956 1022.54 14.352 1021.49 14.472L1025.48 20.952H1022.53L1018.72 14.688H1016.66V20.952H1013.86V5.652ZM1016.66 12.312H1018.72C1019.15 12.312 1019.58 12.3 1020.01 12.276C1020.44 12.228 1020.83 12.132 1021.16 11.988C1021.52 11.844 1021.81 11.628 1022.03 11.34C1022.24 11.052 1022.35 10.656 1022.35 10.152C1022.35 9.648 1022.24 9.252 1022.03 8.964C1021.81 8.676 1021.52 8.46 1021.16 8.316C1020.83 8.172 1020.44 8.088 1020.01 8.064C1019.58 8.04 1019.15 8.028 1018.72 8.028H1016.66V12.312ZM1005.61 13.392C1005.61 11.544 1005.96 9.816 1006.66 8.208C1007.38 6.576 1008.34 5.16 1009.54 3.96C1010.76 2.736 1012.18 1.776 1013.78 1.08C1015.42 0.36 1017.16 0 1019 0C1020.85 0 1022.58 0.36 1024.19 1.08C1025.82 1.776 1027.24 2.736 1028.44 3.96C1029.66 5.16 1030.62 6.576 1031.32 8.208C1032.04 9.816 1032.4 11.544 1032.4 13.392C1032.4 15.24 1032.04 16.98 1031.32 18.612C1030.62 20.22 1029.66 21.636 1028.44 22.86C1027.24 24.06 1025.82 25.02 1024.19 25.74C1022.58 26.436 1020.85 26.784 1019 26.784C1017.16 26.784 1015.42 26.436 1013.78 25.74C1012.18 25.02 1010.76 24.06 1009.54 22.86C1008.34 21.636 1007.38 20.22 1006.66 18.612C1005.96 16.98 1005.61 15.24 1005.61 13.392ZM1007.99 13.392C1007.99 14.904 1008.28 16.332 1008.85 17.676C1009.43 19.02 1010.21 20.196 1011.19 21.204C1012.2 22.188 1013.38 22.968 1014.72 23.544C1016.06 24.12 1017.49 24.408 1019 24.408C1020.52 24.408 1021.94 24.12 1023.29 23.544C1024.63 22.968 1025.8 22.188 1026.78 21.204C1027.79 20.196 1028.58 19.02 1029.16 17.676C1029.73 16.332 1030.02 14.904 1030.02 13.392C1030.02 11.88 1029.73 10.452 1029.16 9.108C1028.58 7.764 1027.79 6.6 1026.78 5.616C1025.8 4.608 1024.63 3.816 1023.29 3.24C1021.94 2.664 1020.52 2.376 1019 2.376C1017.49 2.376 1016.06 2.664 1014.72 3.24C1013.38 3.816 1012.2 4.608 1011.19 5.616C1010.21 6.6 1009.43 7.764 1008.85 9.108C1008.28 10.452 1007.99 11.88 1007.99 13.392Z" fill="#00D179"/>
<path d="M757.422 241.98H771.462C773.368 241.98 775.232 242.175 777.052 242.565C778.872 242.955 780.497 243.605 781.927 244.515C783.357 245.382 784.505 246.53 785.372 247.96C786.282 249.39 786.737 251.167 786.737 253.29C786.737 255.977 786 258.208 784.527 259.985C783.097 261.718 781.147 262.953 778.677 263.69V263.82C780.15 263.95 781.515 264.34 782.772 264.99C784.072 265.597 785.177 266.398 786.087 267.395C787.04 268.392 787.777 269.562 788.297 270.905C788.817 272.205 789.077 273.613 789.077 275.13C789.077 277.687 788.535 279.788 787.452 281.435C786.412 283.082 785.025 284.403 783.292 285.4C781.602 286.353 779.673 287.025 777.507 287.415C775.383 287.805 773.26 288 771.137 288H757.422V241.98ZM762.882 261.48H770.422C771.722 261.48 772.978 261.393 774.192 261.22C775.448 261.047 776.575 260.7 777.572 260.18C778.568 259.617 779.37 258.858 779.977 257.905C780.583 256.908 780.887 255.608 780.887 254.005C780.887 252.575 780.605 251.427 780.042 250.56C779.478 249.65 778.72 248.935 777.767 248.415C776.857 247.895 775.795 247.548 774.582 247.375C773.412 247.158 772.22 247.05 771.007 247.05H762.882V261.48ZM762.882 282.93H772.112C773.455 282.93 774.777 282.8 776.077 282.54C777.42 282.237 778.612 281.782 779.652 281.175C780.735 280.525 781.602 279.702 782.252 278.705C782.902 277.665 783.227 276.408 783.227 274.935C783.227 273.332 782.902 271.988 782.252 270.905C781.645 269.822 780.822 268.955 779.782 268.305C778.785 267.655 777.615 267.2 776.272 266.94C774.972 266.68 773.628 266.55 772.242 266.55H762.882V282.93Z" fill="#00D179"/>
<path d="M798.364 241.98H827.289V247.05H803.824V261.48H825.729V266.55H803.824V282.93H828.459V288H798.364V241.98Z" fill="#00D179"/>
<path d="M867.769 247.05H852.559V288H847.099V247.05H831.889V241.98H867.769V247.05Z" fill="#00D179"/>
<path d="M883.202 241.98H888.337L907.902 288H901.532L896.852 276.69H873.842L869.097 288H862.922L883.202 241.98ZM885.672 249H885.542L875.987 271.62H894.772L885.672 249Z" fill="#00D179"/>
</svg>
